HIERARCHY
ROOT Hips
{
	OFFSET	0.00	0.00	0.00
	CHANNELS 6 Xposition Yposition Zposition Zrotation Xrotation Yrotation
	JOINT LeftUpperLeg
	{
		OFFSET	 0.100000	-0.066564	-0.000554
		CHANNELS 3 Zrotation Xrotation Yrotation
		JOINT LeftLowerLeg
		{
			OFFSET	 0.002447	-0.463436	-0.005172
			CHANNELS 3 Zrotation Xrotation Yrotation
			JOINT LeftFoot
			{
				OFFSET	-0.002447	-0.420480	-0.020576
				CHANNELS 3 Zrotation Xrotation Yrotation
				JOINT LeftToes
				{
					OFFSET	 0.003734	-0.104922	 0.126407
					CHANNELS 3 Zrotation Xrotation Yrotation
					End Site
					{
						OFFSET	 0.000000	 0.000000	 0.059955
					}
				}
			}
		}
	}
	JOINT RightUpperLeg
	{
		OFFSET	-0.100000	-0.066564	-0.000554
		CHANNELS 3 Zrotation Xrotation Yrotation
		JOINT RightLowerLeg
		{
			OFFSET	-0.002447	-0.463436	-0.005146
			CHANNELS 3 Zrotation Xrotation Yrotation
			JOINT RightFoot
			{
				OFFSET	 0.002447	-0.420479	-0.020602
				CHANNELS 3 Zrotation Xrotation Yrotation
				JOINT RightToes
				{
					OFFSET	-0.003734	-0.104922	 0.126407
					CHANNELS 3 Zrotation Xrotation Yrotation
					End Site
					{
						OFFSET	-0.000000	 0.000000	 0.059955
					}
				}
			}
		}
	}
	JOINT Spine
	{
		OFFSET	 0.000000	 0.099235	-0.012273
		CHANNELS 3 Zrotation Xrotation Yrotation
		JOINT Chest
		{
			OFFSET	-0.000001	 0.116455	-0.014223
			CHANNELS 3 Zrotation Xrotation Yrotation
			JOINT UpperChest
			{
				OFFSET	 0.000001	 0.133602	-0.016265
				CHANNELS 3 Zrotation Xrotation Yrotation
				JOINT LeftShoulder
				{
					OFFSET	 0.061058	 0.091105	 0.007056
					CHANNELS 3 Zrotation Xrotation Yrotation
					JOINT LeftUpperArm
					{
						OFFSET	 0.133942	-0.002659	-0.026009
						CHANNELS 3 Zrotation Xrotation Yrotation
						JOINT LeftLowerArm
						{
							OFFSET	 0.274047	 0.000000	 0.000000
							CHANNELS 3 Zrotation Xrotation Yrotation
							JOINT LeftHand
							{
								OFFSET	 0.276145	 0.000000	 0.000000
								CHANNELS 3 Zrotation Xrotation Yrotation
								End Site
								{
									OFFSET	 0.165687	 0.000000	 0.000000
								}
							}
						}
					}
				}
				JOINT Neck
				{
					OFFSET	 0.000000	 0.150325	 0.007929
					CHANNELS 3 Zrotation Xrotation Yrotation
					JOINT Head
					{
						OFFSET	 0.000000	 0.103218	 0.031424
						CHANNELS 3 Zrotation Xrotation Yrotation
						End Site
						{
							OFFSET	 0.000000	 0.061931	 0.018855
						}
					}
				}
				JOINT RightShoulder
				{
					OFFSET	-0.061057	 0.091105	 0.007056
					CHANNELS 3 Zrotation Xrotation Yrotation
					JOINT RightUpperArm
					{
						OFFSET	-0.133943	-0.002660	-0.026009
						CHANNELS 3 Zrotation Xrotation Yrotation
						JOINT RightLowerArm
						{
							OFFSET	-0.274047	 0.000000	 0.000000
							CHANNELS 3 Zrotation Xrotation Yrotation
							JOINT RightHand
							{
								OFFSET	-0.276145	 0.000000	 0.000000
								CHANNELS 3 Zrotation Xrotation Yrotation
								End Site
								{
									OFFSET	-0.165687	 0.000000	 0.000000
								}
							}
						}
					}
				}
			}
		}
	}
}
MOTION
Frames:    16
Frame Time: 0.03333334
-0.230910	 1.048820	 0.313220	-4.138341	 0.786659	 12.857980	 7.384449	-25.935580	 13.526910	-0.671764	 17.564900	 0.093572	-5.107670	-11.304210	 4.048282	 0.000100	 0.650121	 0.000367	-0.967733	 3.928869	 6.502651	-0.002074	 0.081018	-0.000511	 5.611543	-7.084412	-9.527103	-0.000291	 0.648815	 0.000018	 2.158334	 2.914295	-0.546021	-0.000000	 0.000000	 0.000000	 4.361094	 5.815697	-1.209001	 1.878019	-0.154005	 10.381220	-83.977550	-5.580886	-7.854362	-25.852830	 27.731610	-64.917020	 47.595550	 10.097560	-25.033120	 1.502161	-0.189119	 0.877127	 1.934436	-0.570318	 1.130468	-0.166722	 4.983913	-19.156230	 82.172550	 3.778268	 22.662080	 30.001910	 30.011370	 61.924390	-24.203010	 13.364240	 20.292370
-0.235800	 1.053100	 0.276500	-2.508552	 0.401020	 13.622040	 5.394284	-23.045050	 26.029770	-0.059402	 24.138040	 0.005584	-7.293219	-12.402150	-12.020170	 0.000615	 0.358007	-0.000391	-2.585887	 2.407314	 6.478872	-0.001785	 0.079372	-0.000529	 5.339323	-4.689833	-10.519690	-0.000140	 0.539834	 0.000367	 1.886892	 3.210847	-0.750066	-0.000000	 0.000000	 0.000000	 3.833211	 6.406462	-1.613751	 2.294210	-0.733610	 11.322600	-84.596420	-4.596215	-5.441178	-27.199430	 28.005000	-64.013400	 45.238110	 6.324565	-26.324970	 2.118416	-0.667021	 0.545645	 2.156128	-0.870563	 0.648647	 0.142813	 5.195731	-18.952320	 82.629160	 2.795006	 18.925360	 30.697670	 30.087760	 61.477710	-25.221780	 10.406240	 21.944490
-0.235800	 1.053100	 0.276500	-2.508552	 0.401020	 13.622040	 5.394284	-23.045050	 26.029770	-0.059402	 24.138040	 0.005584	-7.293219	-12.402150	-12.020170	 0.000615	 0.358007	-0.000391	-2.585887	 2.407314	 6.478872	-0.001785	 0.079372	-0.000529	 5.339323	-4.689833	-10.519690	-0.000140	 0.539834	 0.000367	 1.886892	 3.210847	-0.750066	-0.000000	 0.000000	 0.000000	 3.833211	 6.406462	-1.613751	 2.294210	-0.733610	 11.322600	-84.596420	-4.596215	-5.441178	-27.199430	 28.005000	-64.013400	 45.238110	 6.324565	-26.324970	 2.118416	-0.667021	 0.545645	 2.156128	-0.870563	 0.648647	 0.142813	 5.195731	-18.952320	 82.629160	 2.795006	 18.925360	 30.697670	 30.087760	 61.477710	-25.221780	 10.406240	 21.944490
-0.236700	 1.054510	 0.262250	-1.902527	 0.153904	 13.465480	 5.176684	-21.403610	 27.918970	-0.551390	 28.765400	 0.139581	-8.548160	-12.291300	-17.979440	-0.001050	 0.173084	 0.000210	-3.246722	 1.857870	 6.782751	-0.002337	 0.080255	 0.000326	 5.264777	-3.640525	-10.714700	-0.001446	 0.431802	 0.000071	 1.823803	 3.184805	-0.598132	-0.000000	 0.000000	 0.000000	 3.696098	 6.363349	-1.301773	 2.059416	-0.966955	 11.756770	-84.525590	-4.800604	-4.443875	-28.496100	 28.470780	-63.098170	 43.270960	 4.013715	-25.576600	 1.839887	-0.667319	 0.724061	 1.971959	-0.630635	 0.426564	-0.295035	 5.051677	-18.886350	 83.504400	 1.768947	 16.548220	 31.504100	 30.666960	 60.959310	-25.252860	 8.743131	 21.592340
-0.236600	 1.055610	 0.245040	-1.141310	-0.206650	 13.047860	 4.757807	-18.915980	 26.687820	-1.012877	 35.424680	 0.323158	-11.167670	-11.418170	-24.492880	-0.000068	-0.100221	 0.000225	-4.142034	 1.237531	 7.809922	-0.002054	 0.088590	-0.000630	 5.288886	-2.478797	-11.345420	 0.000670	 0.356153	 0.045417	 1.729766	 3.072709	-0.493504	-0.000000	 0.000000	 0.000000	 3.502055	 6.141471	-1.086916	 1.787908	-1.245356	 12.011950	-84.289780	-5.208641	-3.168921	-30.428380	 28.780580	-61.837100	 39.523520	 0.959007	-24.112550	 1.440301	-0.367186	 0.674031	 1.627647	-0.146837	 0.472398	-0.726012	 5.151852	-19.042850	 84.039090	 1.427485	 13.711360	 31.359190	 31.301870	 61.813000	-26.064560	 7.539633	 21.187550
-0.236510	 1.056180	 0.233690	-0.954330	-0.619409	 12.582340	 4.918955	-16.392570	 25.534540	-1.174402	 39.885310	 0.425641	-11.389570	-11.041670	-26.175410	 0.000027	-0.157404	-0.000012	-4.395014	 0.903428	 8.222237	-0.001202	 0.075180	 0.000256	 5.409861	-1.704201	-11.310670	 0.000726	 0.356064	 0.023107	 1.763722	 3.030836	-0.516214	-0.000000	 0.000000	 0.000000	 3.570119	 6.056323	-1.133629	 1.951328	-1.265245	 12.149370	-83.988530	-5.632842	-2.466192	-31.478160	 28.553790	-62.030260	 37.460880	 0.617772	-22.740690	 1.469006	-0.030017	 0.660916	 1.399596	 0.056549	 0.698105	-0.562955	 5.288227	-19.128010	 83.977580	 1.657471	 11.932990	 31.267300	 31.286520	 62.831750	-25.909890	 6.631938	 20.338400
-0.234760	 1.056680	 0.215380	-0.765258	-1.270973	 11.884340	 4.728840	-12.387770	 23.088690	-1.751863	 43.852910	 0.705028	-9.225171	-10.766160	-23.292580	-0.000243	 0.173091	 0.000263	-4.803898	 0.336520	 9.026937	-0.002788	 0.079645	-0.000101	 5.963786	-0.588569	-11.505130	 0.000534	 0.355269	 0.027812	 1.780962	 3.021521	-0.589106	-0.000000	 0.000000	 0.000000	 3.608620	 6.034411	-1.279122	 1.820735	-1.316624	 12.119530	-83.457190	-6.352054	-1.992558	-32.007190	 28.611590	-61.992050	 36.502170	-0.419784	-21.530840	 1.173699	 0.207940	 0.900851	 1.134124	 0.231280	 1.041698	-0.265026	 5.480638	-19.628400	 83.421130	 1.916348	 11.036020	 32.272580	 31.521590	 62.980000	-25.335880	 5.707215	 19.634820
-0.232890	 1.056780	 0.202840	-0.650383	-1.602576	 11.263270	 4.494757	-8.859438	 22.223890	-1.411763	 44.920880	 0.582769	-6.600885	-9.268871	-21.014360	-0.000395	 0.702043	 0.000271	-5.148963	-0.189017	 9.493803	-0.001170	 0.089190	 0.000725	 6.631648	 0.105710	-11.433080	-0.000364	 0.355546	 0.068614	 1.770464	 2.876543	-0.627881	-0.000000	 0.000000	 0.000000	 3.586250	 5.743819	-1.351717	 1.664847	-1.466476	 11.923190	-82.954790	-7.005981	-1.804115	-32.782200	 28.515610	-61.625700	 35.501640	-1.711810	-20.049630	 1.009835	 0.155654	 1.263276	 1.026118	 0.447550	 1.333386	 0.192148	 5.542162	-20.381970	 82.856000	 1.990712	 11.306190	 32.882070	 32.170670	 62.672680	-24.691220	 5.414515	 18.603040
-0.229860	 1.056730	 0.190880	-0.334722	-1.805781	 10.349760	 4.128014	-4.857758	 22.093950	-1.117852	 44.302750	 0.454162	-3.380439	-7.427976	-18.450380	-0.000255	 1.333407	 0.000317	-5.771624	-0.805499	 10.083650	-0.002189	 0.080343	-0.000346	 7.436764	 0.758799	-11.164500	-0.000829	 0.378920	-0.000064	 1.687364	 2.630367	-0.714565	-0.000000	 0.000000	 0.000000	 3.420946	 5.247702	-1.513542	 1.699953	-1.426838	 11.458800	-83.061280	-8.304186	-2.177998	-33.767040	 27.946750	-60.720980	 33.716210	-2.543876	-18.789300	 0.753638	 0.093730	 1.601841	 0.905113	 0.597493	 1.773143	 0.047060	 5.591244	-20.711370	 82.466720	 1.606329	 11.515470	 33.805450	 32.685040	 61.904970	-23.666250	 5.024476	 17.551980
-0.225200	 1.056750	 0.173680	-0.065733	-1.917023	 9.108357	 3.142413	 0.848000	 22.114700	-1.122868	 40.017470	 0.408263	 1.296236	-3.627794	-11.450940	 0.000032	-11.072600	-0.000569	-6.521887	-1.933743	 10.832350	-0.001696	 0.089279	 0.000468	 8.835360	 1.723679	-10.833450	 0.000182	 0.371556	 0.000924	 1.596012	 2.389823	-0.843229	-0.000000	 0.000000	 0.000000	 3.239286	 4.763918	-1.761046	 1.719568	-1.481044	 11.059940	-82.979080	-9.340762	-2.125115	-33.616190	 27.616530	-60.482970	 32.441730	-3.812347	-18.514110	 0.768652	-0.182614	 2.108599	 0.934571	 0.310734	 2.364540	-0.071432	 5.429671	-20.798580	 82.079310	 0.995004	 11.691210	 35.857040	 32.753720	 60.720680	-22.029120	 4.738761	 16.542670
-0.221060	 1.056880	 0.159340	 0.070582	-2.014943	 8.507346	 2.095829	 4.968487	 22.905370	-0.756792	 35.127980	 0.238576	 2.951368	-1.743036	-7.879769	 0.000131	-17.556710	 0.002858	-7.055110	-2.795480	 11.145380	-0.001894	 0.075241	 0.000896	 9.931321	 2.516463	-10.708070	-0.000324	 0.361490	 0.315851	 1.536848	 2.281938	-1.002601	-0.000000	 0.000000	 0.000000	 3.123956	 4.545413	-2.073404	 1.822934	-1.214370	 10.666270	-82.998160	-10.140080	-2.218222	-33.450600	 27.636830	-60.780900	 31.339760	-3.669597	-19.230360	 0.972206	-0.222256	 2.344024	 1.080201	 0.006643	 2.662194	 0.040517	 5.242966	-20.730100	 81.930850	 0.906317	 11.588400	 36.217920	 32.896720	 60.684280	-20.742570	 4.423853	 15.805190
-0.215450	 1.056080	 0.141850	 0.638566	-1.353583	 7.477970	 0.948727	 5.508539	 23.863000	-0.812286	 33.215020	 0.241467	 4.421712	 3.838282	-5.262586	-0.000191	-29.564990	 0.757476	-8.232519	-4.659367	 11.509140	-0.001413	 0.080187	-0.000089	 11.499110	 3.483499	-10.445700	 0.000206	 0.366788	 0.445848	 1.200531	 1.895022	-0.949233	-0.000000	 0.000000	 0.000000	 2.437730	 3.775390	-1.943983	 1.150346	-1.681188	 10.900960	-82.595540	-10.136170	-2.798565	-33.917320	 27.202880	-61.192040	 29.022310	-3.553563	-18.508330	 0.721229	-0.986085	 2.836675	 1.376434	-0.193303	 2.743113	-0.350844	 4.437120	-20.368850	 82.736080	 0.741541	 11.451200	 35.370080	 32.891140	 61.409390	-19.051740	 3.847350	 14.606620
-0.210220	 1.054330	 0.126090	 1.117178	-0.227807	 6.530907	 0.145536	 2.871282	 24.865870	-0.705337	 34.769050	 0.220136	 5.884392	 5.243133	-3.597981	-0.000321	-33.050980	 1.437882	-9.288906	-6.903367	 12.183380	-0.000776	 0.079363	-0.000625	 12.882500	 4.289186	-10.751680	-0.000363	 0.371708	 0.551043	 0.915980	 1.408783	-0.766784	-0.000000	 0.000000	 0.000000	 1.854990	 2.810581	-1.559554	 1.159788	-1.716414	 11.067870	-82.527310	-10.297600	-3.671158	-34.360120	 27.110740	-60.801830	 27.369020	-3.509159	-17.543540	 0.998386	-1.167848	 3.025516	 1.545181	-0.193301	 2.651961	-0.168059	 4.232788	-20.126640	 83.081670	 0.164469	 11.638950	 35.335390	 32.913180	 61.460010	-17.704530	 3.796702	 14.194530
-0.205040	 1.052140	 0.110230	 1.058123	 0.163588	 6.521389	 0.450133	 1.345254	 24.208020	-1.759934	 36.141380	 0.573135	 6.567780	 3.453112	-3.468570	-0.000143	-31.385380	 1.240355	-9.761335	-8.268649	 12.060170	-0.001563	 0.088616	 0.000449	 14.073690	 4.986486	-11.125640	 0.000858	 0.377025	 0.635432	 0.842906	 1.219746	-0.832790	-0.000000	 0.000000	 0.000000	 1.708189	 2.431241	-1.687529	 1.527221	-1.047040	 10.438470	-82.379600	-10.004410	-4.733571	-35.185910	 26.824740	-60.080230	 25.442060	-2.834148	-16.282870	 1.579900	-0.670830	 2.385433	 1.716942	-0.284575	 2.510296	 0.470858	 4.769380	-20.667510	 82.813350	-0.411538	 11.856510	 36.096470	 32.951070	 61.386970	-16.400530	 2.536282	 13.320410
-0.199910	 1.049180	 0.093480	 0.781390	 0.356057	 6.754584	 1.358829	 0.089408	 26.528820	-0.358405	 37.513790	 0.122612	 6.346077	 1.653342	-10.016900	-0.000232	-31.410940	 0.206082	-10.031970	-9.446930	 11.059990	-0.001792	 0.090326	 0.000182	 14.870920	 5.991972	-10.722160	-0.000019	 0.379853	 0.663296	 0.855413	 1.201563	-0.951180	-0.000000	 0.000000	 0.000000	 1.731851	 2.393366	-1.922838	 1.887390	-0.651737	 10.026740	-82.316710	-9.287094	-5.757315	-35.980800	 26.183100	-59.673470	 24.204030	-1.724020	-15.367070	 1.820767	-0.507546	 2.079153	 1.799002	-0.461778	 2.312848	 0.838599	 4.947151	-20.694560	 82.672430	-0.845427	 12.286150	 37.228570	 32.518360	 60.876020	-14.234870	 0.330237	 11.933260
-0.193560	 1.044810	 0.071920	 0.453034	 0.618254	 7.102332	 1.407790	-0.081774	 24.959630	-1.309454	 36.522650	 0.431387	 3.007504	-2.239469	-12.089990	-0.000707	-27.384990	-0.000304	-10.416700	-10.961530	 10.559640	-0.001117	 0.089541	-0.000216	 15.818880	 7.103374	-11.040990	-0.000230	 0.379982	 0.676036	 0.873359	 1.252897	-1.100373	-0.000000	 0.000000	 0.000000	 1.773061	 2.492584	-2.225354	 2.346010	-0.336359	 9.362441	-82.898320	-8.778591	-7.088125	-35.511140	 26.603290	-58.990050	 23.739480	-1.754280	-14.873230	 1.913228	-0.787936	 1.742596	 1.879762	-0.878457	 2.046840	 1.149551	 4.942776	-20.416310	 82.389890	-1.053308	 13.015550	 38.625770	 31.321730	 60.289800	-10.846380	-2.414512	 10.109990
